<?xml version="1.0" encoding="UTF-8"?>
<svg xmlns="http://www.w3.org/2000/svg" xmlns:xlink="http://www.w3.org/1999/xlink" width="375pt" height="374.999991pt" viewBox="0 0 375 374.999991" version="1.2">
<defs>
<clipPath id="clip1">
  <path d="M 31.9375 24 L 336.882812 24 L 336.882812 280 L 31.9375 280 Z M 31.9375 24 "/>
</clipPath>
<clipPath id="clip2">
  <path d="M 77.035156 92 L 327.535156 92 L 327.535156 241.21875 L 77.035156 241.21875 Z M 77.035156 92 "/>
</clipPath>
<clipPath id="clip3">
  <path d="M 198 57 L 233 57 L 233 98 L 198 98 Z M 198 57 "/>
</clipPath>
<clipPath id="clip4">
  <path d="M 187.5 45.589844 L 251.769531 60.597656 L 228.066406 162.117188 L 163.796875 147.113281 Z M 187.5 45.589844 "/>
</clipPath>
<clipPath id="clip5">
  <path d="M 187.5 45.589844 L 251.769531 60.597656 L 228.066406 162.117188 L 163.796875 147.113281 Z M 187.5 45.589844 "/>
</clipPath>
<clipPath id="clip6">
  <path d="M 187.5 45.589844 L 251.679688 60.578125 L 227.988281 162.050781 L 163.808594 147.066406 Z M 187.5 45.589844 "/>
</clipPath>
<clipPath id="clip7">
  <path d="M 180 93 L 209 93 L 209 150 L 180 150 Z M 180 93 "/>
</clipPath>
<clipPath id="clip8">
  <path d="M 187.5 45.589844 L 251.769531 60.597656 L 228.066406 162.117188 L 163.796875 147.113281 Z M 187.5 45.589844 "/>
</clipPath>
<clipPath id="clip9">
  <path d="M 187.5 45.589844 L 251.769531 60.597656 L 228.066406 162.117188 L 163.796875 147.113281 Z M 187.5 45.589844 "/>
</clipPath>
<clipPath id="clip10">
  <path d="M 187.5 45.589844 L 251.679688 60.578125 L 227.988281 162.050781 L 163.808594 147.066406 Z M 187.5 45.589844 "/>
</clipPath>
<clipPath id="clip11">
  <path d="M 198 115 L 214 115 L 214 157 L 198 157 Z M 198 115 "/>
</clipPath>
<clipPath id="clip12">
  <path d="M 187.5 45.589844 L 251.769531 60.597656 L 228.066406 162.117188 L 163.796875 147.113281 Z M 187.5 45.589844 "/>
</clipPath>
<clipPath id="clip13">
  <path d="M 187.5 45.589844 L 251.769531 60.597656 L 228.066406 162.117188 L 163.796875 147.113281 Z M 187.5 45.589844 "/>
</clipPath>
<clipPath id="clip14">
  <path d="M 187.5 45.589844 L 251.679688 60.578125 L 227.988281 162.050781 L 163.808594 147.066406 Z M 187.5 45.589844 "/>
</clipPath>
<clipPath id="clip15">
  <path d="M 181 71 L 239 71 L 239 118 L 181 118 Z M 181 71 "/>
</clipPath>
<clipPath id="clip16">
  <path d="M 187.5 45.589844 L 251.769531 60.597656 L 228.066406 162.117188 L 163.796875 147.113281 Z M 187.5 45.589844 "/>
</clipPath>
<clipPath id="clip17">
  <path d="M 187.5 45.589844 L 251.769531 60.597656 L 228.066406 162.117188 L 163.796875 147.113281 Z M 187.5 45.589844 "/>
</clipPath>
<clipPath id="clip18">
  <path d="M 187.5 45.589844 L 251.679688 60.578125 L 227.988281 162.050781 L 163.808594 147.066406 Z M 187.5 45.589844 "/>
</clipPath>
</defs>
<g id="surface1">
<g clip-path="url(#clip1)" clip-rule="nonzero">
<path style=" stroke:none;fill-rule:nonzero;fill:rgb(0%,0%,0%);fill-opacity:1;" d="M 150.476562 279.632812 C 145.191406 279.632812 139.902344 278.753906 134.613281 276.546875 C 129.765625 274.785156 125.359375 272.140625 121.394531 268.613281 C 114.34375 262.4375 109.496094 254.0625 107.734375 245.242188 C 105.53125 246.566406 102.886719 247.449219 100.683594 247.886719 C 96.714844 248.769531 93.191406 249.652344 89.226562 249.652344 C 83.496094 249.652344 77.765625 248.328125 72.480469 246.125 C 67.191406 243.921875 62.785156 240.832031 58.820312 236.867188 C 54.851562 232.898438 51.769531 228.046875 49.5625 223.195312 C 47.359375 217.90625 46.039062 212.171875 46.039062 206.441406 C 46.039062 199.386719 47.800781 192.332031 51.328125 185.71875 C 46.039062 182.191406 41.191406 177.339844 38.105469 171.609375 C 36.34375 168.523438 34.582031 164.996094 33.699219 161.027344 C 32.820312 157.5 31.9375 153.53125 31.9375 149.5625 C 31.9375 144.273438 32.820312 139.421875 34.582031 134.570312 C 36.34375 129.722656 38.988281 125.753906 42.074219 121.785156 C 45.15625 117.816406 49.125 114.730469 53.53125 112.085938 C 57.054688 109.878906 61.023438 108.558594 64.988281 107.234375 C 64.546875 105.03125 64.546875 103.265625 64.546875 101.0625 C 64.546875 95.328125 65.871094 89.597656 68.074219 84.308594 C 70.277344 79.015625 73.359375 74.605469 77.328125 70.636719 C 81.292969 66.667969 86.140625 63.582031 90.988281 61.378906 C 96.277344 59.175781 102.003906 57.851562 107.734375 57.851562 C 116.988281 57.851562 125.800781 60.9375 133.292969 66.230469 C 133.734375 61.820312 135.054688 57.410156 136.816406 53.441406 C 139.019531 47.710938 142.546875 42.859375 146.953125 38.449219 C 151.359375 34.042969 156.207031 30.957031 161.9375 28.308594 C 167.664062 25.664062 173.835938 24.78125 180.445312 24.78125 C 183.96875 24.78125 187.9375 25.222656 191.460938 26.105469 C 194.988281 26.988281 198.511719 28.308594 201.597656 29.632812 C 204.679688 31.394531 207.765625 33.160156 210.410156 35.363281 C 212.171875 36.6875 213.933594 38.449219 215.699219 40.214844 C 219.222656 35.804688 223.628906 32.277344 228.917969 29.632812 C 232.003906 27.867188 235.085938 26.988281 238.613281 26.105469 C 242.136719 25.222656 245.664062 24.78125 249.1875 24.78125 C 254.917969 24.78125 260.648438 26.105469 265.933594 28.308594 C 271.222656 30.515625 275.628906 33.601562 279.59375 37.570312 C 283.5625 41.539062 286.644531 46.386719 288.851562 51.238281 C 291.054688 56.527344 292.375 62.261719 292.375 67.992188 C 292.375 67.992188 292.375 68.433594 292.375 68.433594 C 292.816406 68.433594 293.257812 68.433594 293.695312 68.433594 C 299.425781 68.433594 305.15625 69.757812 310.441406 71.960938 C 315.730469 74.164062 320.136719 77.253906 324.105469 81.21875 C 328.070312 85.1875 331.15625 90.039062 333.359375 94.890625 C 335.5625 100.179688 336.882812 105.910156 336.882812 111.644531 C 336.882812 120.460938 334.238281 128.839844 329.390625 135.894531 C 327.1875 139.421875 324.105469 142.507812 321.019531 145.152344 C 318.816406 146.917969 316.171875 148.679688 313.527344 150.003906 C 316.613281 153.53125 318.816406 157.058594 320.578125 161.46875 C 322.78125 166.757812 324.105469 172.933594 324.105469 178.664062 C 324.105469 184.394531 322.78125 190.128906 320.578125 195.417969 C 318.375 200.710938 315.289062 205.117188 311.324219 209.085938 C 307.359375 213.054688 302.511719 216.140625 297.664062 218.347656 C 292.375 220.550781 286.648438 221.875 280.917969 221.875 C 277.390625 221.875 273.867188 221.433594 270.339844 220.550781 C 268.578125 220.109375 266.816406 219.667969 265.054688 218.789062 C 265.054688 224.519531 263.730469 230.25 261.527344 235.542969 C 259.324219 240.832031 256.238281 245.242188 252.273438 249.210938 C 248.308594 253.179688 243.460938 256.265625 238.613281 258.46875 C 233.324219 260.675781 227.597656 261.996094 221.867188 261.996094 C 210.410156 261.996094 199.832031 257.589844 191.902344 250.09375 C 191.019531 253.179688 189.257812 256.265625 187.496094 258.910156 C 184.851562 262.878906 181.765625 266.40625 177.800781 269.492188 C 173.835938 272.578125 169.867188 274.785156 165.460938 276.546875 C 160.613281 278.753906 155.765625 279.632812 150.476562 279.632812 Z M 112.140625 236.867188 L 112.582031 240.832031 C 114.785156 259.792969 131.089844 274.34375 150.476562 274.34375 C 168.546875 274.34375 183.527344 261.996094 187.496094 244.800781 L 188.816406 239.511719 L 192.34375 243.480469 C 199.832031 252.296875 210.410156 257.148438 221.867188 257.148438 C 243.019531 257.148438 260.207031 239.953125 260.207031 218.789062 C 260.207031 217.464844 260.207031 216.140625 260.207031 214.820312 L 259.324219 210.410156 L 263.730469 212.613281 C 269.019531 215.261719 275.1875 217.023438 281.359375 217.023438 C 302.511719 217.023438 319.695312 199.828125 319.695312 178.664062 C 319.695312 168.082031 315.730469 158.382812 307.796875 151.328125 L 304.714844 148.679688 L 308.238281 146.917969 C 322.339844 141.183594 331.59375 127.074219 331.59375 111.644531 C 331.59375 90.480469 314.410156 73.285156 293.257812 73.285156 C 291.933594 73.285156 290.613281 73.285156 289.289062 73.285156 L 286.207031 73.726562 L 286.644531 70.636719 C 286.644531 69.757812 286.644531 68.433594 286.644531 67.550781 C 286.644531 46.386719 269.460938 29.191406 248.308594 29.191406 C 235.96875 29.191406 224.511719 35.363281 217.019531 45.066406 L 214.816406 48.152344 L 213.496094 45.945312 C 205.5625 35.804688 193.222656 29.632812 180.445312 29.632812 C 157.527344 29.632812 138.582031 48.152344 138.582031 71.519531 L 138.582031 77.691406 L 134.171875 73.726562 C 127.121094 67.109375 117.867188 63.582031 108.175781 63.582031 C 87.023438 63.582031 69.835938 80.78125 69.835938 101.945312 C 69.835938 104.589844 70.277344 107.234375 70.714844 109.4375 L 71.15625 112.085938 L 68.511719 112.085938 C 50.445312 115.171875 37.226562 131.042969 37.226562 149.5625 C 37.226562 163.230469 44.277344 175.578125 56.175781 182.632812 L 58.378906 183.953125 L 57.054688 186.160156 C 53.53125 192.332031 51.328125 198.945312 51.328125 206.441406 C 51.328125 227.605469 68.511719 244.800781 89.664062 244.800781 C 96.714844 244.800781 103.328125 243.039062 109.054688 239.511719 Z M 112.140625 236.867188 "/>
</g>
<path style=" stroke:none;fill-rule:nonzero;fill:rgb(0%,0%,0%);fill-opacity:1;" d="M 93.191406 292.421875 C 89.664062 292.421875 86.140625 291.097656 83.496094 288.453125 C 80.851562 285.808594 79.53125 282.28125 79.53125 278.753906 C 79.53125 275.226562 80.851562 271.699219 83.496094 269.050781 C 86.140625 266.40625 89.664062 265.085938 93.191406 265.085938 C 96.714844 265.085938 100.242188 266.40625 102.886719 269.050781 C 105.53125 271.699219 106.851562 275.226562 106.851562 278.753906 C 106.851562 282.28125 105.53125 285.808594 102.886719 288.453125 C 100.683594 290.65625 97.15625 292.421875 93.191406 292.421875 Z M 93.191406 269.933594 C 88.34375 269.933594 84.816406 273.902344 84.816406 278.3125 C 84.816406 283.160156 88.785156 286.6875 93.191406 286.6875 C 98.039062 286.6875 101.5625 282.722656 101.5625 278.3125 C 102.003906 273.902344 98.039062 269.933594 93.191406 269.933594 Z M 93.191406 269.933594 "/>
<path style=" stroke:none;fill-rule:nonzero;fill:rgb(0%,0%,0%);fill-opacity:1;" d="M 79.972656 321.964844 C 74.683594 321.964844 70.277344 317.554688 70.277344 312.261719 C 70.277344 306.972656 74.683594 302.5625 79.972656 302.5625 C 85.257812 302.5625 89.664062 306.972656 89.664062 312.261719 C 89.664062 317.554688 85.257812 321.964844 79.972656 321.964844 Z M 79.972656 307.414062 C 77.328125 307.414062 75.5625 309.617188 75.5625 311.820312 C 75.5625 314.46875 77.765625 316.230469 79.972656 316.230469 C 82.175781 316.230469 84.378906 314.027344 84.378906 311.820312 C 84.378906 309.617188 82.175781 307.414062 79.972656 307.414062 Z M 79.972656 307.414062 "/>
<path style=" stroke:none;fill-rule:nonzero;fill:rgb(0%,0%,0%);fill-opacity:1;" d="M 70.277344 349.742188 C 65.429688 349.742188 61.460938 345.773438 61.460938 340.921875 C 61.460938 336.074219 65.429688 332.105469 70.277344 332.105469 C 75.125 332.105469 79.089844 336.074219 79.089844 340.921875 C 78.648438 345.773438 75.125 349.742188 70.277344 349.742188 Z M 70.277344 337.394531 C 68.511719 337.394531 66.75 338.71875 66.75 340.921875 C 66.75 342.6875 68.074219 344.449219 70.277344 344.449219 C 72.039062 344.449219 73.800781 343.128906 73.800781 340.921875 C 73.359375 339.160156 72.039062 337.394531 70.277344 337.394531 Z M 70.277344 337.394531 "/>
<g clip-path="url(#clip2)" clip-rule="nonzero">
<path style=" stroke:none;fill-rule:nonzero;fill:rgb(32.159424%,44.309998%,100%);fill-opacity:1;" d="M 77.035156 241.078125 C 77.035156 241.078125 81.578125 182.878906 198.535156 159.171875 C 315.488281 135.464844 326.210938 92.109375 326.210938 92.109375 C 326.210938 92.109375 343.03125 139.71875 256.699219 175.101562 C 170.371094 210.480469 111.273438 181.875 77.035156 241.078125 "/>
</g>
<g clip-path="url(#clip3)" clip-rule="nonzero">
<g clip-path="url(#clip4)" clip-rule="nonzero">
<g clip-path="url(#clip5)" clip-rule="nonzero">
<g clip-path="url(#clip6)" clip-rule="nonzero">
<path style=" stroke:none;fill-rule:nonzero;fill:rgb(52.549744%,76.469421%,21.569824%);fill-opacity:1;" d="M 207.664062 62.726562 C 199.253906 65.925781 197.109375 78.1875 199.644531 85.953125 C 203.023438 96.316406 215.261719 100.351562 224.363281 94.070312 C 232.1875 88.667969 234.550781 77.660156 231.726562 68.902344 C 228.910156 60.171875 217.777344 52.65625 210.386719 61.195312 C 209.796875 61.875 208.929688 64.8125 210 65.449219 C 212.402344 66.878906 214.984375 66.230469 217.664062 66.484375 C 220.757812 66.777344 223.3125 68.539062 225.351562 70.769531 C 229.441406 75.238281 230.328125 82.246094 225.773438 86.585938 C 220.378906 91.726562 210.933594 91.484375 205.625 86.574219 C 198.578125 80.050781 202.59375 71.097656 207.765625 65.027344 C 208.019531 64.726562 208.539062 62.394531 207.664062 62.726562 "/>
</g>
</g>
</g>
</g>
<g clip-path="url(#clip7)" clip-rule="nonzero">
<g clip-path="url(#clip8)" clip-rule="nonzero">
<g clip-path="url(#clip9)" clip-rule="nonzero">
<g clip-path="url(#clip10)" clip-rule="nonzero">
<path style=" stroke:none;fill-rule:nonzero;fill:rgb(52.549744%,76.469421%,21.569824%);fill-opacity:1;" d="M 205.171875 97.273438 C 202.921875 107.433594 199.40625 116.203125 193.535156 124.808594 C 189.164062 131.222656 182.386719 137.550781 180.550781 145.234375 C 180.3125 146.230469 179.992188 149.71875 181.882812 149.328125 C 184.847656 148.71875 187.59375 142.636719 189.316406 140.289062 C 192.414062 136.066406 195.496094 131.851562 198.257812 127.398438 C 203.957031 118.191406 207.941406 107.769531 208.800781 96.921875 C 209.171875 92.214844 205.9375 93.796875 205.171875 97.273438 "/>
</g>
</g>
</g>
</g>
<g clip-path="url(#clip11)" clip-rule="nonzero">
<g clip-path="url(#clip12)" clip-rule="nonzero">
<g clip-path="url(#clip13)" clip-rule="nonzero">
<g clip-path="url(#clip14)" clip-rule="nonzero">
<path style=" stroke:none;fill-rule:nonzero;fill:rgb(52.549744%,76.469421%,21.569824%);fill-opacity:1;" d="M 198.972656 118.296875 C 199.925781 124.804688 201.871094 131.296875 203.179688 137.765625 C 204.304688 143.324219 205.148438 151.0625 208.863281 155.578125 C 210.894531 158.046875 212.777344 149.523438 212.429688 148.257812 C 213.636719 152.648438 212.699219 149.246094 212.429688 148.257812 C 211.984375 146.652344 211.40625 145.160156 210.804688 143.605469 C 209.324219 139.78125 208.507812 135.664062 207.46875 131.703125 C 206.300781 127.25 205.003906 117.46875 200.113281 115.46875 C 199.121094 115.0625 198.90625 117.855469 198.972656 118.296875 "/>
</g>
</g>
</g>
</g>
<g clip-path="url(#clip15)" clip-rule="nonzero">
<g clip-path="url(#clip16)" clip-rule="nonzero">
<g clip-path="url(#clip17)" clip-rule="nonzero">
<g clip-path="url(#clip18)" clip-rule="nonzero">
<path style=" stroke:none;fill-rule:nonzero;fill:rgb(52.549744%,76.469421%,21.569824%);fill-opacity:1;" d="M 181.355469 72.296875 C 181.640625 85.3125 187.238281 94.800781 198.851562 100.777344 C 210.933594 107 225.765625 107.816406 236.160156 117.1875 C 236.371094 117.386719 236.613281 117.4375 236.886719 117.339844 C 237.109375 117.261719 237.332031 117.1875 237.554688 117.109375 C 238.515625 116.78125 238.839844 114.925781 238.761719 114.089844 C 238.277344 108.808594 231.953125 106.484375 227.660156 104.554688 C 221.800781 101.921875 215.570312 100.199219 209.496094 98.164062 C 202.949219 95.972656 196.621094 93.242188 191.539062 88.453125 C 186.757812 83.945312 184.296875 77.433594 181.976562 71.421875 C 181.75 70.847656 181.351562 72.121094 181.355469 72.296875 "/>
</g>
</g>
</g>
</g>
</g>
</svg>
